<svg width="60" height="60" viewBox="0 0 60 60" fill="none" xmlns="http://www.w3.org/2000/svg">
<g id="Phone call">
<path id="Icon" d="M37.6251 12.5C40.0669 12.9764 42.311 14.1706 44.0702 15.9298C45.8294 17.689 47.0237 19.9332 47.5001 22.375M37.6251 2.5C42.6983 3.06359 47.4291 5.33544 51.0407 8.94252C54.6523 12.5496 56.9301 17.2775 57.5001 22.35M55.0001 42.3V49.8C55.0029 50.4963 54.8603 51.1854 54.5814 51.8234C54.3024 52.4613 53.8933 53.034 53.3803 53.5047C52.8672 53.9754 52.2615 54.3337 51.6019 54.5568C50.9424 54.7798 50.2435 54.8627 49.5501 54.8C41.8572 53.9641 34.4676 51.3354 27.9751 47.125C21.9346 43.2867 16.8134 38.1654 12.9751 32.125C8.75002 25.603 6.12068 18.1775 5.30008 10.45C5.2376 9.75867 5.31976 9.0619 5.54133 8.40406C5.76289 7.74622 6.119 7.14172 6.58699 6.62905C7.05498 6.11638 7.62459 5.70677 8.25955 5.4263C8.89452 5.14584 9.58093 5.00065 10.2751 5H17.7751C18.9883 4.98806 20.1646 5.4177 21.0845 6.20883C22.0044 6.99997 22.6053 8.09862 22.7751 9.3C23.0916 11.7002 23.6787 14.0568 24.5251 16.325C24.8614 17.2198 24.9342 18.1923 24.7348 19.1272C24.5355 20.0621 24.0722 20.9203 23.4001 21.6L20.2251 24.775C23.784 31.0339 28.9662 36.2161 35.2251 39.775L38.4001 36.6C39.0798 35.9278 39.938 35.4646 40.8729 35.2652C41.8078 35.0658 42.7803 35.1386 43.6751 35.475C45.9433 36.3214 48.2999 36.9084 50.7001 37.225C51.9145 37.3963 53.0236 38.008 53.8164 38.9437C54.6092 39.8795 55.0305 41.0739 55.0001 42.3Z" stroke="#278064" stroke-width="4" stroke-linecap="round" stroke-linejoin="round"/>
</g>
</svg>
