<svg width="101" height="100" viewBox="0 0 101 100" fill="none" xmlns="http://www.w3.org/2000/svg">
<g id="add_circle">
<path id="icon" d="M46.2381 70.8334H54.6452V54.1667H71.4593V45.8334H54.6452V29.1667H46.2381V45.8334H29.4239V54.1667H46.2381V70.8334ZM50.4416 91.6667C44.6267 91.6667 39.1621 90.5903 34.0478 88.4375C28.9335 86.2153 24.4848 83.2292 20.7016 79.4792C16.9184 75.7292 13.9059 71.3195 11.664 66.25C9.49216 61.1806 8.40625 55.7639 8.40625 50C8.40625 44.2362 9.49216 38.8195 11.664 33.75C13.9059 28.6806 16.9184 24.2709 20.7016 20.5209C24.4848 16.7709 28.9335 13.8195 34.0478 11.6667C39.1621 9.44448 44.6267 8.33337 50.4416 8.33337C56.2565 8.33337 61.7211 9.44448 66.8354 11.6667C71.9498 13.8195 76.3985 16.7709 80.1817 20.5209C83.9649 24.2709 86.9424 28.6806 89.1142 33.75C91.3561 38.8195 92.477 44.2362 92.477 50C92.477 55.7639 91.3561 61.1806 89.1142 66.25C86.9424 71.3195 83.9649 75.7292 80.1817 79.4792C76.3985 83.2292 71.9498 86.2153 66.8354 88.4375C61.7211 90.5903 56.2565 91.6667 50.4416 91.6667ZM50.4416 83.3334C59.8295 83.3334 67.7812 80.1042 74.2967 73.6459C80.8122 67.1875 84.07 59.3056 84.07 50C84.07 40.6945 80.8122 32.8125 74.2967 26.3542C67.7812 19.8959 59.8295 16.6667 50.4416 16.6667C41.0537 16.6667 33.102 19.8959 26.5866 26.3542C20.0711 32.8125 16.8133 40.6945 16.8133 50C16.8133 59.3056 20.0711 67.1875 26.5866 73.6459C33.102 80.1042 41.0537 83.3334 50.4416 83.3334Z" fill="#278064"/>
</g>
</svg>
